<svg width="18" height="19" viewBox="0 0 18 19" fill="none" xmlns="http://www.w3.org/2000/svg">
<path fill-rule="evenodd" clip-rule="evenodd" d="M9 3.5C5.68629 3.5 3 6.18629 3 9.5C3 12.8137 5.68629 15.5 9 15.5C12.3137 15.5 15 12.8137 15 9.5C15 6.18629 12.3137 3.5 9 3.5ZM1.5 9.5C1.5 5.35786 4.85786 2 9 2C13.1421 2 16.5 5.35786 16.5 9.5C16.5 13.6421 13.1421 17 9 17C4.85786 17 1.5 13.6421 1.5 9.5Z" fill="#FDC557"/>
<path fill-rule="evenodd" clip-rule="evenodd" d="M11.625 9.5C11.625 9.30109 11.546 9.11032 11.4053 8.96967L8.40533 5.96967C8.11244 5.67678 7.63756 5.67678 7.34467 5.96967C7.05178 6.26256 7.05178 6.73744 7.34467 7.03033L9.81434 9.5L7.34467 11.9697C7.05178 12.2626 7.05178 12.7374 7.34467 13.0303C7.63756 13.3232 8.11244 13.3232 8.40533 13.0303L11.4053 10.0303C11.546 9.88968 11.625 9.69891 11.625 9.5Z" fill="#FDC557"/>
</svg>
