<svg width="18" height="18" viewBox="0 0 18 18" fill="none" xmlns="http://www.w3.org/2000/svg">
<path fill-rule="evenodd" clip-rule="evenodd" d="M12.5422 6.60677C12.8284 6.90619 12.8177 7.38094 12.5182 7.66716L9.09881 10.9357C8.5309 11.4786 7.64034 11.4913 7.05719 10.9648L8.06234 9.85142L11.4818 6.58285C11.7812 6.29663 12.2559 6.30734 12.5422 6.60677ZM5.44331 8.49742C5.72087 8.18997 6.19513 8.16573 6.50258 8.4433L8.06234 9.85142L7.05719 10.9648L5.49743 9.5567C5.18997 9.27914 5.16574 8.80488 5.44331 8.49742Z" fill="#65CE68"/>
<path fill-rule="evenodd" clip-rule="evenodd" d="M9 3C5.68629 3 3 5.68629 3 9C3 12.3137 5.68629 15 9 15C12.3137 15 15 12.3137 15 9C15 5.68629 12.3137 3 9 3ZM1.5 9C1.5 4.85786 4.85786 1.5 9 1.5C13.1421 1.5 16.5 4.85786 16.5 9C16.5 13.1421 13.1421 16.5 9 16.5C4.85786 16.5 1.5 13.1421 1.5 9Z" fill="#65CE68"/>
</svg>
