<svg width="18" height="18" viewBox="0 0 18 18" fill="none" xmlns="http://www.w3.org/2000/svg">
<path fill-rule="evenodd" clip-rule="evenodd" d="M11.0854 2.55918C12.197 1.67499 13.8149 1.85933 14.6991 2.97091L15.9728 4.57219C16.857 5.68378 16.6726 7.30167 15.5611 8.18586L14.0463 9.39072L8.55577 13.7588C7.79753 14.3614 6.85721 14.6897 5.88871 14.6897L2.85727 14.6897C2.6017 14.6897 2.35945 14.5756 2.1966 14.3787C2.03374 14.1817 1.96726 13.9224 2.01527 13.6713L2.59618 10.6347C2.78876 9.62796 3.33571 8.72358 4.13786 8.08552L9.52082 3.80373C9.52153 3.80316 9.52224 3.8026 9.52295 3.80204L11.0854 2.55918ZM9.92575 5.6724L5.20518 9.42732C4.72388 9.81015 4.39571 10.3528 4.28016 10.9568L3.89406 12.9752L5.88871 12.9752C6.46981 12.9752 7.03378 12.7784 7.48872 12.4168L12.3004 8.5888L9.92575 5.6724ZM13.6423 7.52137L14.4938 6.84406C14.8643 6.54933 14.9257 6.01003 14.631 5.6395L13.3573 4.03822C13.0626 3.6677 12.5233 3.60625 12.1527 3.90098L11.2676 4.60502L13.6423 7.52137Z" fill="#C88F1F"/>
</svg>
