<svg width="18" height="18" viewBox="0 0 18 18" fill="none" xmlns="http://www.w3.org/2000/svg">
<path fill-rule="evenodd" clip-rule="evenodd" d="M4.79942 1.71967C4.94007 1.57902 5.13084 1.5 5.32975 1.5L13.459 1.5C14.6422 1.5 15.374 2.77524 14.8026 3.79852L13.6847 5.80044C13.6768 5.81463 13.6768 5.83244 13.6847 5.84662L14.8026 7.84854C15.374 8.87181 14.6422 10.1471 13.459 10.1471H6.07975L6.07975 15H8.48925C8.90347 15 9.23925 15.3358 9.23925 15.75C9.23925 16.1642 8.90347 16.5 8.48925 16.5H3.75C3.33579 16.5 3 16.1642 3 15.75C3 15.3358 3.33579 15 3.75 15H4.57975L4.57975 2.25C4.57975 2.05109 4.65877 1.86032 4.79942 1.71967ZM6.07975 8.64706H13.459C13.4712 8.64706 13.4753 8.64458 13.4771 8.64351C13.4808 8.64131 13.4871 8.63608 13.4925 8.62674C13.4979 8.6174 13.4998 8.60867 13.5 8.60277C13.5001 8.59907 13.4999 8.59238 13.4929 8.57985L12.375 6.57794C12.1133 6.10924 12.1133 5.53782 12.375 5.06913L13.4929 3.06721C13.4999 3.05468 13.5001 3.04799 13.5 3.04429C13.4998 3.03839 13.4979 3.02966 13.4925 3.02032C13.4871 3.01098 13.4809 3.00581 13.4772 3.00361C13.4754 3.00254 13.4712 3 13.459 3L6.07975 3V8.64706Z" fill="#B0B1B3"/>
</svg>
