<svg width="24" height="24" viewBox="0 0 24 24" fill="none" xmlns="http://www.w3.org/2000/svg">
<path fill-rule="evenodd" clip-rule="evenodd" d="M11.4453 2.16795C11.7812 1.94402 12.2188 1.94402 12.5547 2.16795L21.5547 8.16795C22.0142 8.4743 22.1384 9.09517 21.832 9.5547C21.5257 10.0142 20.9048 10.1384 20.4453 9.83205L12 4.20185L3.55468 9.83205C3.09516 10.1384 2.47429 10.0142 2.16793 9.5547C1.86158 9.09517 1.98576 8.4743 2.44528 8.16795L11.4453 2.16795Z" fill="black"/>
<path fill-rule="evenodd" clip-rule="evenodd" d="M5 7C5.55228 7 6 7.44772 6 8V17C6 18.6569 7.34315 20 9 20H11V14C11 13.4477 11.4477 13 12 13C12.5523 13 13 13.4477 13 14V20H15C16.6569 20 18 18.6569 18 17V8C18 7.44772 18.4477 7 19 7C19.5523 7 20 7.44772 20 8V17C20 19.7614 17.7614 22 15 22H9C6.23858 22 4 19.7614 4 17V8C4 7.44772 4.44772 7 5 7Z" fill="black"/>
</svg>
