<svg width="203" height="65" viewBox="0 0 203 65" fill="none" xmlns="http://www.w3.org/2000/svg">
<g clip-path="url(#clip0_55_202)">
<path d="M0 35.0204C0 29.4838 4.48826 24.9955 10.0248 24.9955H67.7994C73.3359 24.9955 77.8242 29.4838 77.8242 35.0204V35.0204C77.8242 40.5569 73.3359 45.0452 67.7994 45.0452H10.0248C4.48826 45.0452 0 40.5569 0 35.0204V35.0204Z" fill="#FC7738"/>
<path d="M4.7486 23.6765C4.7486 16.683 10.418 11.0136 17.4115 11.0136H60.4127C67.4062 11.0136 73.0756 16.683 73.0756 23.6765V46.3642C73.0756 53.3578 67.4062 59.0271 60.4127 59.0271H17.4115C10.418 59.0271 4.7486 53.3578 4.7486 46.3642V23.6765Z" fill="white"/>
<path d="M8.96957 26.5784C8.96957 19.5849 14.639 13.9155 21.6325 13.9155H56.1917C63.1852 13.9155 68.8546 19.5849 68.8546 26.5784V43.4623C68.8546 50.4558 63.1852 56.1252 56.1917 56.1252H21.6325C14.639 56.1252 8.96957 50.4558 8.96957 43.4623V26.5784Z" fill="#24272E"/>
<circle cx="24.2706" cy="35.0204" r="3.95716" fill="white"/>
<circle cx="53.8174" cy="35.0204" r="3.95716" fill="white"/>
<path fill-rule="evenodd" clip-rule="evenodd" d="M34.0492 43.6166C34.5468 42.8978 35.5329 42.7185 36.2516 43.2161C37.7728 44.2693 39.7875 44.2693 41.3087 43.2161C42.0275 42.7185 43.0135 42.8978 43.5111 43.6166C44.0087 44.3353 43.8294 45.3214 43.1107 45.819C40.5054 47.6226 37.055 47.6226 34.4496 45.819C33.7309 45.3214 33.5516 44.3353 34.0492 43.6166Z" fill="white"/>
<path d="M94.9042 6.99755H102.84C106.125 6.99755 108.664 7.63755 110.456 8.91755C112.269 10.1975 113.176 11.9895 113.176 14.2935C113.176 15.7442 112.728 17.0135 111.832 18.1015C110.957 19.1895 109.752 20.0322 108.216 20.6295C106.701 21.2055 105.016 21.4935 103.16 21.4935H101.816V29.0135H94.9042V6.99755ZM103.192 17.0455C104.323 17.0455 105.197 16.8109 105.816 16.3415C106.435 15.8722 106.744 15.1895 106.744 14.2935C106.744 13.3975 106.435 12.7255 105.816 12.2775C105.219 11.8295 104.344 11.6055 103.192 11.6055H101.816V16.9815C102.243 17.0242 102.701 17.0455 103.192 17.0455ZM121.996 29.2695C120.609 29.2695 119.308 28.9069 118.092 28.1815C116.897 27.4349 115.937 26.4322 115.212 25.1735C114.487 23.8935 114.124 22.4749 114.124 20.9175C114.124 19.3815 114.487 17.9949 115.212 16.7575C115.937 15.4989 116.908 14.5175 118.124 13.8135C119.34 13.1095 120.631 12.7575 121.996 12.7575C123.105 12.7575 124.129 13.0669 125.068 13.6855C126.028 14.3042 126.753 15.2322 127.244 16.4695V12.7575H133.964V29.0135H127.244V26.0375C126.177 28.1922 124.428 29.2695 121.996 29.2695ZM124.076 24.2135C124.929 24.2135 125.655 23.9149 126.252 23.3175C126.871 22.6989 127.201 21.9735 127.244 21.1415V20.8855C127.201 20.0322 126.86 19.3069 126.22 18.7095C125.601 18.1122 124.887 17.8135 124.076 17.8135C123.18 17.8135 122.412 18.1335 121.772 18.7735C121.153 19.3922 120.844 20.1389 120.844 21.0135C120.844 21.9095 121.164 22.6669 121.804 23.2855C122.444 23.9042 123.201 24.2135 124.076 24.2135ZM137.205 13.2055H143.957V15.9895C144.981 13.8349 146.72 12.7575 149.173 12.7575C150.603 12.7575 151.915 13.1202 153.109 13.8455C154.325 14.5495 155.275 15.5309 155.957 16.7895C156.661 18.0482 157.013 19.4562 157.013 21.0135C157.013 22.5709 156.651 23.9789 155.925 25.2375C155.221 26.4962 154.261 27.4882 153.045 28.2135C151.851 28.9175 150.571 29.2695 149.205 29.2695C146.773 29.2695 145.024 28.1922 143.957 26.0375V33.1736L137.205 34.4535V13.2055ZM147.157 24.2135C148.032 24.2135 148.779 23.8935 149.397 23.2535C150.016 22.6135 150.325 21.8669 150.325 21.0135C150.325 20.1175 150.005 19.3602 149.365 18.7415C148.747 18.1229 148.011 17.8135 147.157 17.8135C146.283 17.8135 145.536 18.1229 144.917 18.7415C144.299 19.3389 143.989 20.0535 143.989 20.8855V21.0135C143.989 21.9095 144.299 22.6669 144.917 23.2855C145.557 23.9042 146.304 24.2135 147.157 24.2135ZM166.527 29.2695C165.141 29.2695 163.839 28.9069 162.623 28.1815C161.429 27.4349 160.469 26.4322 159.743 25.1735C159.018 23.8935 158.655 22.4749 158.655 20.9175C158.655 19.3815 159.018 17.9949 159.743 16.7575C160.469 15.4989 161.439 14.5175 162.655 13.8135C163.871 13.1095 165.162 12.7575 166.527 12.7575C167.637 12.7575 168.661 13.0669 169.599 13.6855C170.559 14.3042 171.285 15.2322 171.775 16.4695V12.7575H178.495V29.0135H171.775V26.0375C170.709 28.1922 168.959 29.2695 166.527 29.2695ZM168.607 24.2135C169.461 24.2135 170.186 23.9149 170.783 23.3175C171.402 22.6989 171.733 21.9735 171.775 21.1415V20.8855C171.733 20.0322 171.391 19.3069 170.751 18.7095C170.133 18.1122 169.418 17.8135 168.607 17.8135C167.711 17.8135 166.943 18.1335 166.303 18.7735C165.685 19.3922 165.375 20.1389 165.375 21.0135C165.375 21.9095 165.695 22.6669 166.335 23.2855C166.975 23.9042 167.733 24.2135 168.607 24.2135ZM181.737 13.2055H188.169V16.4695C189.406 13.9949 191.369 12.7575 194.057 12.7575C196.105 12.7575 197.705 13.4935 198.857 14.9655C200.03 16.4162 200.617 18.4322 200.617 21.0135V29.0135H193.897V20.3415C193.897 19.4242 193.694 18.7202 193.289 18.2295C192.905 17.7389 192.361 17.4935 191.657 17.4935C191.145 17.4935 190.643 17.6642 190.153 18.0055C189.662 18.3255 189.257 18.7949 188.937 19.4135C188.638 20.0322 188.489 20.7362 188.489 21.5255V29.0135H181.737V13.2055ZM98.3282 43.8615H93.7522V38.9975H110.36V43.8615H105.784V61.0135H98.3282V43.8615ZM119.811 61.2695C118.126 61.2695 116.622 60.9709 115.299 60.3735C113.998 59.7762 112.984 58.9335 112.259 57.8455C111.534 56.7575 111.171 55.5202 111.171 54.1335V44.9815H117.763V54.0375C117.763 54.7415 117.955 55.2962 118.339 55.7015C118.744 56.0855 119.246 56.2775 119.843 56.2775C120.419 56.2775 120.888 56.0855 121.251 55.7015C121.635 55.2962 121.827 54.7415 121.827 54.0375V44.9815H128.291V54.1335C128.291 55.5415 127.928 56.7895 127.203 57.8775C126.499 58.9442 125.507 59.7762 124.227 60.3735C122.947 60.9709 121.475 61.2695 119.811 61.2695ZM137.025 61.2695C135.212 61.2695 133.804 60.7042 132.801 59.5735C131.82 58.4215 131.329 56.8535 131.329 54.8695V39.9255L138.081 38.9335V54.3895C138.081 54.9869 138.22 55.4242 138.497 55.7015C138.796 55.9575 139.308 56.0855 140.033 56.0855C140.566 56.0855 141.089 55.9575 141.601 55.7015L141.825 60.1815C140.396 60.9069 138.796 61.2695 137.025 61.2695ZM149.119 61.2695C147.327 61.2695 145.929 60.6935 144.927 59.5415C143.924 58.3895 143.423 56.8215 143.423 54.8375V44.9815H150.207V54.5495C150.207 55.0402 150.335 55.4242 150.591 55.7015C150.868 55.9575 151.22 56.0855 151.647 56.0855C152.073 56.0855 152.511 55.9575 152.959 55.7015L153.311 60.1495C152.841 60.5122 152.223 60.7895 151.455 60.9815C150.708 61.1735 149.929 61.2695 149.119 61.2695ZM146.815 42.5815C145.812 42.5815 144.959 42.2722 144.255 41.6535C143.572 41.0135 143.231 40.2349 143.231 39.3175C143.231 38.4002 143.593 37.6322 144.319 37.0135C145.044 36.3949 145.876 36.0855 146.815 36.0855C147.796 36.0855 148.639 36.4055 149.343 37.0455C150.068 37.6855 150.431 38.4429 150.431 39.3175C150.431 40.2562 150.068 41.0349 149.343 41.6535C148.617 42.2722 147.775 42.5815 146.815 42.5815ZM160.71 61.2695C158.47 61.2695 156.507 60.9389 154.822 60.2775L155.558 56.4695C157.094 57.0242 158.587 57.3015 160.038 57.3015C161.105 57.3015 161.638 57.0029 161.638 56.4055C161.638 56.1069 161.478 55.8615 161.158 55.6695C160.859 55.4775 160.283 55.3069 159.43 55.1575C157.659 54.8162 156.379 54.2402 155.59 53.4295C154.822 52.6189 154.438 51.4669 154.438 49.9735C154.523 48.2882 155.195 46.9975 156.454 46.1015C157.713 45.2055 159.43 44.7575 161.606 44.7575C162.715 44.7575 163.665 44.8322 164.454 44.9815C165.265 45.1095 166.001 45.3335 166.662 45.6535L165.99 49.4615C165.371 49.2269 164.689 49.0455 163.942 48.9175C163.217 48.7895 162.609 48.7255 162.118 48.7255C161.393 48.7255 160.891 48.8002 160.614 48.9495C160.337 49.0989 160.198 49.3015 160.198 49.5575C160.198 50.0269 160.731 50.3575 161.798 50.5495C163.739 50.8909 165.19 51.4882 166.15 52.3415C167.11 53.1949 167.59 54.3575 167.59 55.8295C167.59 57.5149 166.993 58.8482 165.798 59.8295C164.625 60.7895 162.929 61.2695 160.71 61.2695Z" fill="#24272E"/>
</g>
<defs>
<clipPath id="clip0_55_202">
<rect width="202.824" height="64" fill="white" transform="translate(0 0.0135498)"/>
</clipPath>
</defs>
</svg>
