<svg width="78" height="49" viewBox="0 0 78 49" fill="none" xmlns="http://www.w3.org/2000/svg">
<g clip-path="url(#clip0_55_230)">
<path d="M0 24.0068C0 18.4702 4.48826 13.982 10.0248 13.982H67.7994C73.3359 13.982 77.8242 18.4702 77.8242 24.0068V24.0068C77.8242 29.5433 73.3359 34.0316 67.7994 34.0316H10.0248C4.48826 34.0316 0 29.5433 0 24.0068V24.0068Z" fill="#FC7738"/>
<path d="M4.7486 12.6629C4.7486 5.66938 10.418 0 17.4115 0H60.4127C67.4062 0 73.0756 5.66938 73.0756 12.6629V35.3506C73.0756 42.3442 67.4062 48.0136 60.4127 48.0136H17.4115C10.418 48.0136 4.7486 42.3442 4.7486 35.3506V12.6629Z" fill="white"/>
<path d="M8.96957 15.5648C8.96957 8.5713 14.639 2.90192 21.6325 2.90192H56.1917C63.1852 2.90192 68.8546 8.5713 68.8546 15.5648V32.4487C68.8546 39.4423 63.1852 45.1116 56.1917 45.1116H21.6325C14.639 45.1116 8.96957 39.4423 8.96957 32.4487V15.5648Z" fill="#24272E"/>
<circle cx="24.2706" cy="24.0068" r="3.95716" fill="white"/>
<circle cx="53.8174" cy="24.0068" r="3.95716" fill="white"/>
<path fill-rule="evenodd" clip-rule="evenodd" d="M34.0492 32.603C34.5468 31.8842 35.5329 31.7049 36.2516 32.2025C37.7728 33.2557 39.7875 33.2557 41.3087 32.2025C42.0275 31.7049 43.0135 31.8842 43.5111 32.603C44.0087 33.3217 43.8294 34.3078 43.1107 34.8054C40.5054 36.6091 37.055 36.6091 34.4496 34.8054C33.7309 34.3078 33.5516 33.3217 34.0492 32.603Z" fill="white"/>
</g>
<defs>
<clipPath id="clip0_55_230">
<rect width="77.8242" height="48.0136" fill="white"/>
</clipPath>
</defs>
</svg>
