<svg width="138" height="76" viewBox="0 0 138 76" fill="none" xmlns="http://www.w3.org/2000/svg">
<g clip-path="url(#clip0_55_227)">
<path d="M33.2134 40.3311C31.7805 34.9832 34.9541 29.4863 40.302 28.0533L96.108 13.1002C101.456 11.6672 106.953 14.8409 108.386 20.1888V20.1888C109.819 25.5367 106.645 31.0336 101.297 32.4666L45.4912 47.4198C40.1434 48.8527 34.6464 45.679 33.2134 40.3311V40.3311Z" fill="#FC7738"/>
<path d="M34.8642 28.1448C33.0541 21.3895 37.063 14.446 43.8182 12.6359L85.3542 1.50641C92.1094 -0.303651 99.0529 3.70521 100.863 10.4604L106.735 32.3751C108.545 39.1303 104.536 46.0739 97.781 47.8839L56.2451 59.0135C49.4898 60.8235 42.5463 56.8147 40.7362 50.0594L34.8642 28.1448Z" fill="white"/>
<path d="M39.6924 29.8553C37.8824 23.1001 41.8912 16.1566 48.6464 14.3465L82.0281 5.40192C88.7833 3.59186 95.7269 7.60071 97.5369 14.3559L101.907 30.6645C103.717 37.4198 99.708 44.3633 92.9528 46.1734L59.5711 55.118C52.8159 56.928 45.8723 52.9192 44.0623 46.1639L39.6924 29.8553Z" fill="#24272E"/>
<circle cx="56.657" cy="34.0494" r="3.95716" transform="rotate(-15 56.657 34.0494)" fill="#FFF6E5"/>
<circle cx="85.197" cy="26.4022" r="3.95716" transform="rotate(-15 85.197 26.4022)" fill="#FFF6E5"/>
<path fill-rule="evenodd" clip-rule="evenodd" d="M68.3273 39.8218C68.6219 38.9988 69.5279 38.5704 70.351 38.865C72.093 39.4886 74.039 38.9671 75.2358 37.5561C75.8013 36.8895 76.8001 36.8074 77.4668 37.3729C78.1335 37.9384 78.2155 38.9372 77.65 39.6039C75.6003 42.0204 72.2675 42.9135 69.2841 41.8456C68.461 41.5509 68.0327 40.6449 68.3273 39.8218Z" fill="#FFF6E5"/>
<ellipse cx="15.6794" cy="50.026" rx="10" ry="19.5" transform="rotate(-43.5213 15.6794 50.026)" fill="white"/>
<ellipse cx="123.987" cy="57.8045" rx="10" ry="19.5" transform="rotate(-32.894 123.987 57.8045)" fill="white"/>
</g>
<defs>
<clipPath id="clip0_55_227">
<rect width="138" height="76" fill="white"/>
</clipPath>
</defs>
</svg>
